# xmcd
#
# Track frame offsets:
#	150
#	25423
#	53105
#	78026
#	98847
#	119091
#	143702
#	171352
#	192561
#	213842
#	249939
#	271176
#
# Disc length: 3841 seconds
#
# Revision: 0
# Processed by: cddbd v1.5.1PL0 Copyright (c) Steve Scherf et al.
# Submitted via: EasyCDDAExtractor 7.1.3.1
#
DISCID=a40eff0c
DTITLE=Various Artist - Chay tron
DYEAR=2004
DGENRE=Vietnam
TTITLE0=Tung Duong - Yeu
TTITLE1=Tung Duong - Chay tron
TTITLE2=Tung Duong - Trang khuyet
TTITLE3=Tung Duong - Lua mat em
TTITLE4=Tung Duong - Trang khat
TTITLE5=Tung Duong - Den ben diu dang
TTITLE6=Tung Duong - Oi que toi
TTITLE7=Tung Duong - Que nha
TTITLE8=Tung Duong - Den va trang
TTITLE9=Ngoc Khue - Ben bo ao nha minh
TTITLE10=Thuy Linh - Chuon chuon ot
TTITLE11=Thai Thuy Linh - Trong vong tay co don
EXTD=
EXTT0=
EXTT1=
EXTT2=
EXTT3=
EXTT4=
EXTT5=
EXTT6=
EXTT7=
EXTT8=
EXTT9=
EXTT10=
EXTT11=
PLAYORDER=
